<svg xmlns="http://www.w3.org/2000/svg" xmlns:svg="http://www.w3.org/2000/svg" id="Layer_1" x="0" y="0" version="1.1" viewBox="0 0 220 67" xml:space="preserve" style="enable-background:new 0 0 220 67"><metadata id="metadata265"/><defs id="defs263"><defs id="defs227"><filter id="Adobe_OpacityMaskFilter" width="111.5" height="34.2" x="21.2" y="12.3" filterUnits="userSpaceOnUse"><feColorMatrix id="feColorMatrix224" type="matrix" values="1 0 0 0 0 0 1 0 0 0 0 0 1 0 0 0 0 0 1 0"/></filter></defs><mask id="mask0_1_" width="111.5" height="34.2" x="21.2" y="12.3" maskUnits="userSpaceOnUse"><path id="path229" d="M9.9,3.6h129.2v42.9H9.9V3.6z" class="st0"/></mask></defs><style id="style222" type="text/css">.st0,.st2,.st3{fill-rule:evenodd;clip-rule:evenodd}.st0{fill:#fff;filter:url(#Adobe_OpacityMaskFilter)}.st2{fill:#28234a}.st3{fill:#8ac4eb}.st4{fill:none;stroke:#28234a;stroke-width:1.6067;stroke-linecap:round;stroke-linejoin:round}.st5{fill:#28234a}</style><g id="g1153"><g id="g1138"><path style="fill:#e0e0e0;fill-opacity:1" id="path232" d="m 31.4,46.4 c 7.9,0 9.9,-3.2 9.9,-7.6 0,-5.4 -4.9,-6.4 -8.9,-7.1 -3,-0.5 -4.4,-0.7 -4.4,-2.6 0,-1.4 1.2,-1.9 3.2,-1.9 2.4,0 3.1,0.7 3.4,2.8 L 41,29 c -0.5,-4.4 -3,-6.7 -9.6,-6.7 -7.2,0 -9.7,2.9 -9.7,7.5 0,6 5.6,6.6 9.7,7.3 2.6,0.5 3.6,0.9 3.6,2.6 0,1.4 -0.9,2 -3.4,2 -2.9,0 -3.7,-0.5 -4.1,-2.8 l -6.3,0.9 c 0.6,4.7 3.3,6.6 10.2,6.6 z" class="st2"/><path style="fill:#e0e0e0;fill-opacity:1" id="path234" d="m 52.2,41.6 c -3,0 -4.1,-0.7 -4.1,-2.9 0,-2 1.1,-2.8 4.4,-2.8 h 3.3 v 2.3 c -0.1,2.3 -1.2,3.4 -3.6,3.4 z m -2.8,4.8 c 3.5,0 5.1,-1.1 6.3,-2.8 v 2.5 H 62 V 30.2 c 0,-5.3 -2,-8 -9.1,-8 -6.8,0 -9.2,1.9 -10.2,6.7 l 6.3,1 c 0.4,-2 1,-2.6 3.6,-2.6 2.5,0 2.9,1.1 2.9,2.8 v 1.6 h -3 c -8.1,0 -10.9,2.5 -10.9,7.5 0.1,4.9 2.6,7.2 7.8,7.2 z" class="st2"/><path style="fill:#e0e0e0;fill-opacity:1" id="path236" d="m 63.6,46.1 h 6.5 V 12.3 l -6.5,6.5 z" class="st2"/><path style="fill:#e0e0e0;fill-opacity:1" id="path238" d="m 78.1,31.8 v -1.2 c 0,-2.1 1,-3.5 3.8,-3.5 2.8,0 3.7,1.2 3.7,3.5 v 1.2 z M 82,46.5 c 7.5,0 9.5,-3.5 10,-7 l -6.2,-0.9 c -0.3,2.1 -0.7,3.2 -3.8,3.2 -3.1,0 -3.8,-1.5 -3.8,-3.6 V 36.3 H 92 V 32 c 0,-5.9 -2.3,-9.8 -10,-9.8 -7.6,0 -10.2,4 -10.2,9 v 6.3 c 0,4.9 2.6,9 10.2,9 z" class="st2"/><path style="fill:#e0e0e0;fill-opacity:1" id="path240" d="m 104,46.5 c 7.5,0 10.6,-3.8 10.6,-9 v -6.3 c 0,-5.2 -3.1,-9 -10.6,-9 -7.5,0 -10.5,3.7 -10.5,9 v 6.3 c 0.1,5.2 3,9 10.5,9 z m 0,-5.1 c -2.6,0 -3.9,-1.4 -3.9,-3.6 V 31 c 0,-2.2 1.3,-3.6 3.9,-3.6 2.6,0 4,1.4 4,3.6 v 6.8 c 0.1,2.2 -1.3,3.6 -4,3.6 z" class="st2"/><path style="fill:#e0e0e0;fill-opacity:1" id="path242" d="m 126.3,28.9 h -3.5 v 17 h -6.5 v -17 0 l 6.4,-6.5 h 10 z" class="st2"/></g><path id="path246" d="m 39.4,2 -8.6,9 H 52 l 8.6,-9 z" class="st3"/><path id="path248" d="m 21.7,5.7 -8.1,8 h 27.9 l 8.1,-8 z" class="st4" style="stroke:#e0e0e0;stroke-opacity:1"/><path id="path250" d="m 142.6,46.2 c 3.1,0 5.4,-1 6.6,-2.9 v 2.6 H 152 V 11.6 l -2.8,3.7 v 10.3 c -1.2,-1.8 -3.4,-2.8 -6.5,-2.8 -5.9,0 -8,3.5 -8,8.7 v 6.1 c 0,5.1 2,8.6 7.9,8.6 z m 0.6,-2.6 c -4,0 -5.6,-2.2 -5.6,-5.8 v -6.6 c 0,-3.5 1.6,-5.9 5.6,-5.9 4,0 6.1,2.3 6.1,5.9 v 6.9 c -0.1,3.4 -2.3,5.5 -6.1,5.5 z" class="st5" style="fill:#e0e0e0;fill-opacity:1"/><path id="path252" d="m 162.5,43.9 c -4,0 -5.8,-2.3 -5.8,-5.8 v -6.6 c 0,-3.6 1.9,-5.9 5.8,-5.9 4,0 5.8,2.3 5.8,5.9 v 6.6 c 0,3.5 -1.9,5.8 -5.8,5.8 z m 0,2.6 c 5.9,0 8.6,-3.5 8.6,-8.7 v -6.1 c 0,-5.2 -2.8,-8.7 -8.6,-8.7 -5.9,0 -8.6,3.4 -8.6,8.7 v 6.1 c 0,5.2 2.6,8.7 8.6,8.7 z" class="st5" style="fill:#e0e0e0;fill-opacity:1"/><path id="path254" d="m 181.3,46.5 c 6.2,0 7.6,-3.7 7.9,-6.6 l -2.7,-0.4 c -0.4,2.4 -0.9,4.3 -5.2,4.3 -3.7,0 -5.4,-2.3 -5.4,-5.8 v -6.6 c 0,-3.6 1.6,-5.9 5.4,-5.9 3.7,0 5,1.6 5.3,4.6 l 2.8,-0.4 C 189,25.9 187.1,23 181.3,23 c -5.7,0 -8.2,3.4 -8.2,8.7 v 6.1 c 0,5.2 2.4,8.7 8.2,8.7 z" class="st5" style="fill:#e0e0e0;fill-opacity:1"/><path id="path256" d="m 198.5,46.5 c 5.3,0 8,-2.2 8,-6.4 0,-5.2 -3.8,-5.9 -7.4,-6.7 -2.9,-0.6 -5.3,-1.3 -5.3,-4.3 0,-2.4 1.6,-3.5 4.9,-3.5 3.2,0 4.4,1.3 4.8,4.2 l 2.8,-0.4 c -0.4,-3.7 -2.4,-6.3 -7.5,-6.3 -4.1,0 -7.6,1.5 -7.7,6.1 0,5.2 3.8,5.9 7.4,6.7 2.8,0.6 5.2,1.2 5.2,4.2 0,2.9 -1.7,3.8 -5.2,3.8 -3.7,0 -4.7,-1.2 -5.2,-4.4 l -2.7,0.4 c 0.4,4.1 2.3,6.6 7.9,6.6 z" class="st5" style="fill:#e0e0e0;fill-opacity:1"/></g></svg>